<?xml version="1.0" encoding="UTF-8"?>
<svg version="1.1" xmlns="http://www.w3.org/2000/svg" width="1024" height="1024">
<path d="M0 0 C337.92 0 675.84 0 1024 0 C1024 337.92 1024 675.84 1024 1024 C686.08 1024 348.16 1024 0 1024 C0 686.08 0 348.16 0 0 Z " fill="#F7F7F7" transform="translate(0,0)"/>
<path d="M0 0 C4.35650386 0.0089907 8.71298218 0.00035659 13.06948602 -0.00586212 C21.56473047 -0.01526596 30.05988891 -0.00882561 38.55512688 0.00340082 C48.47721449 0.01713991 58.39928248 0.01537266 68.32137718 0.01326749 C86.03797313 0.01009011 103.75452865 0.02167461 121.47111261 0.04133332 C138.61077356 0.06034648 155.75038718 0.06741551 172.89005792 0.06184113 C191.62150075 0.05576695 210.35292287 0.05598924 229.084364 0.06732696 C231.08594751 0.06853408 233.08753103 0.06974006 235.08911455 0.07094491 C236.07356961 0.07154844 237.05802467 0.07215198 238.0723117 0.07277381 C244.96770718 0.07663255 251.86309489 0.07626738 258.75849092 0.07435906 C267.17221037 0.07222483 275.58588866 0.0775537 283.99959657 0.09197261 C288.28178552 0.09915589 292.5639149 0.10334626 296.84610879 0.09872925 C319.45847342 0.07738216 341.67833301 0.44687078 363.85465753 5.37751496 C365.04832941 5.64177277 366.24200128 5.90603058 367.47184503 6.17829621 C393.66211175 12.57097421 416.47778747 25.73881138 435.85465753 44.37751496 C436.32999933 44.82707551 436.80534112 45.27663605 437.29508722 45.73981965 C452.95077357 60.59110336 464.71927492 77.96315776 471.85465753 98.37751496 C472.53647081 99.9633054 473.22375056 101.54675961 473.91715753 103.12751496 C481.59346193 122.17842425 483.01209339 143.54662153 482.9883703 163.81527436 C482.99024219 165.34651616 482.99254439 166.87775749 482.99523562 168.40899807 C483.0013134 172.58659519 483.0012248 176.76417218 483.00004125 180.9417727 C482.99983621 185.45935292 483.00536578 189.97692685 483.01009881 194.49450409 C483.01838408 203.33453946 483.0211527 212.17456815 483.02171119 221.01460708 C483.02218741 228.20571118 483.02424743 235.39681309 483.02741182 242.58791649 C483.03621299 263.0063328 483.04083209 283.42474385 483.04008134 303.84316207 C483.04002141 305.49224072 483.04002141 305.49224072 483.03996027 307.1746341 C483.03989894 308.82574227 483.03989894 308.82574227 483.03983638 310.51020616 C483.03943018 328.3377631 483.04899469 346.16529889 483.06309863 363.99284972 C483.07748871 382.32777407 483.08436735 400.66268812 483.08350486 418.99761826 C483.08317377 429.27926917 483.08588189 439.56089792 483.09668291 449.84254372 C483.10582266 458.59847547 483.10793481 467.35437501 483.10117348 476.11030949 C483.09792559 480.57038112 483.09778834 485.03039107 483.10652673 489.4904567 C483.16892799 523.44974717 483.16892799 523.44974717 480.85465753 539.37751496 C480.68884274 540.64781839 480.52302795 541.91812182 480.35218847 543.22691929 C479.62905384 548.6718117 478.64889782 553.79385563 476.73356378 558.94758332 C475.77608643 561.59474224 474.92604789 564.26636634 474.06950128 566.94782746 C468.67570611 583.14523659 460.82282099 598.2822691 449.85465753 611.37751496 C449.11731378 612.26052277 448.37997003 613.14353058 447.62028253 614.05329621 C445.42740924 616.56229539 443.1638406 618.97521967 440.85465753 621.37751496 C440.38866144 621.87460968 439.92266534 622.37170441 439.44254816 622.88386261 C421.34756706 642.14343014 398.53747081 656.63472044 372.85465753 663.37751496 C371.55528253 663.71903595 371.55528253 663.71903595 370.22965753 664.06745636 C367.44384851 664.781221 364.65249784 665.46253875 361.85465753 666.12751496 C361.02579034 666.32659455 360.19692316 666.52567414 359.34293878 666.73078644 C339.80103795 671.08693949 319.9958013 670.67455719 300.10467529 670.65362334 C295.66478991 670.65113373 291.22492469 670.66019785 286.78504694 670.66766083 C278.10824753 670.68034935 269.43147916 670.68220878 260.75467204 670.67986057 C253.69295578 670.6780703 246.63124886 670.67984217 239.56953371 670.68408501 C238.56063302 670.6846802 237.55173234 670.68527539 236.51225891 670.68588861 C234.4619708 670.6871005 232.4116827 670.68831463 230.36139459 670.68953099 C211.17276198 670.70038448 191.98414699 670.69825472 172.7955134 670.69214614 C155.29247119 670.68698167 137.78948472 670.69822395 120.28645354 670.71724436 C102.26092991 670.73668046 84.23543257 670.74486851 66.20989841 670.74112111 C56.11145958 670.73921745 46.01306813 670.74161437 35.91463792 670.75583565 C27.31528052 670.76782445 18.71599964 670.76907135 10.11664104 670.75704549 C5.74081831 670.75120826 1.36513502 670.74991169 -3.01067793 670.76204789 C-56.55562054 670.90013329 -103.26180642 661.66411215 -142.49299872 623.13532746 C-171.83273856 593.35210014 -185.31311463 551.99408111 -185.28578436 510.8208133 C-185.28837213 509.25218751 -185.29138643 507.68356238 -185.29478776 506.11493814 C-185.30281305 501.82460061 -185.30464483 497.53427985 -185.30538523 493.2439357 C-185.30724368 488.60833269 -185.31479506 483.97273823 -185.32152045 479.3371402 C-185.3350736 469.20848024 -185.34112409 459.07982425 -185.34553111 448.95115674 C-185.34829927 442.61805811 -185.35253772 436.28496101 -185.35703528 429.95186341 C-185.3692252 412.39331768 -185.37952428 394.83477317 -185.38291037 377.2762233 C-185.38312994 376.15348138 -185.3833495 375.03073946 -185.38357572 373.87397505 C-185.383794 372.74864603 -185.38401228 371.623317 -185.38423717 370.4638871 C-185.38468063 368.1837943 -185.38512719 365.9037015 -185.38557684 363.62360871 C-185.38579827 362.49261971 -185.3860197 361.36163071 -185.38624784 360.19636932 C-185.39019137 341.89217962 -185.40763302 323.58802983 -185.43093637 305.28385553 C-185.45470681 286.45968456 -185.46711485 267.63553357 -185.46827829 248.81134737 C-185.46919198 238.25513148 -185.47486665 227.6989676 -185.4930979 217.14276612 C-185.50857608 208.14934267 -185.51357427 199.15598729 -185.5053598 190.16255304 C-185.50148011 185.58260413 -185.5022499 181.00279194 -185.51641715 176.42286026 C-185.65979218 127.11060118 -176.67044109 82.56403001 -140.90315497 46.06892121 C-111.03642077 16.37751496 -111.03642077 16.37751496 -96.14534247 16.37751496 C-96.14534247 15.71751496 -96.14534247 15.05751496 -96.14534247 14.37751496 C-95.53948309 14.20735871 -94.93362372 14.03720246 -94.30940497 13.86188996 C-89.94765981 12.60033905 -85.7476196 11.25359261 -81.58284247 9.44001496 C-56.05876564 -0.86400373 -27.05905599 -0.07677443 0 0 Z " fill="#2672DD" transform="translate(363.1453424692154,176.62248504161835)"/>
<path d="M0 0 C2.4882471 0.00314112 4.97527961 -0.02029568 7.46337891 -0.0456543 C22.09891852 -0.10653651 35.58688629 1.77216781 49.26416016 7.31567383 C50.23530762 7.7044873 51.20645508 8.09330078 52.20703125 8.49389648 C67.13570892 14.68705878 80.08841312 23.33272212 91.88916016 34.31567383 C92.83146484 35.17676758 93.77376953 36.03786133 94.74462891 36.92504883 C117.67715539 58.79019396 131.03593481 89.17299411 132.11572266 120.79223633 C132.40502728 134.74768491 131.82962165 148.39035277 126.55322266 161.48974609 C125.62278568 164.0481057 125.22578863 166.62264605 124.88916016 169.31567383 C124.22916016 169.31567383 123.56916016 169.31567383 122.88916016 169.31567383 C122.78345703 170.01950195 122.67775391 170.72333008 122.56884766 171.44848633 C121.8008914 174.68802593 120.55386931 177.24147967 119.01416016 180.19067383 C117.30659581 183.51206986 115.62157968 186.79828943 114.20166016 190.25317383 C111.86079911 195.71518293 109.07023437 199.13459961 104.88916016 203.31567383 C103.03422969 205.6914271 101.22614143 208.09489884 99.43994141 210.52270508 C98.92818359 211.11438477 98.41642578 211.70606445 97.88916016 212.31567383 C97.22916016 212.31567383 96.56916016 212.31567383 95.88916016 212.31567383 C95.64810547 212.88415039 95.40705078 213.45262695 95.15869141 214.03833008 C93.63947928 216.76356291 91.81497035 218.58257722 89.57666016 220.75317383 C88.77486328 221.53821289 87.97306641 222.32325195 87.14697266 223.13208008 C86.40189453 223.85266602 85.65681641 224.57325195 84.88916016 225.31567383 C82.26193613 227.87376038 79.93910529 230.24075612 77.88916016 233.31567383 C77.22916016 233.31567383 76.56916016 233.31567383 75.88916016 233.31567383 C75.65575928 233.87577148 75.4223584 234.43586914 75.18188477 235.01293945 C73.56436041 237.89424063 71.56558486 239.84614506 69.20556641 242.15942383 C68.27808594 243.07594727 67.35060547 243.9924707 66.39501953 244.93676758 C65.41425307 245.8967641 64.43312978 246.85639621 63.45166016 247.81567383 C61.53299025 249.69779461 59.61863089 251.58408365 57.70556641 253.47192383 C56.85422119 254.30530273 56.00287598 255.13868164 55.12573242 255.99731445 C52.87553405 258.22321171 52.87553405 258.22321171 51.21313477 260.6184082 C50.77622314 261.17850586 50.33931152 261.73860352 49.88916016 262.31567383 C49.22916016 262.31567383 48.56916016 262.31567383 47.88916016 262.31567383 C47.55916016 263.30567383 47.22916016 264.29567383 46.88916016 265.31567383 C46.22916016 265.31567383 45.56916016 265.31567383 44.88916016 265.31567383 C44.57978516 266.15098633 44.57978516 266.15098633 44.26416016 267.00317383 C42.73407122 269.57650522 40.88120563 271.04617738 38.54541016 272.87817383 C36.11527674 274.98734622 34.18116409 277.44484091 32.18603516 279.96020508 C31.75806641 280.40750977 31.33009766 280.85481445 30.88916016 281.31567383 C30.22916016 281.31567383 29.56916016 281.31567383 28.88916016 281.31567383 C28.53337891 282.1582373 28.53337891 282.1582373 28.17041016 283.01782227 C26.59596659 285.84150041 24.67231471 287.79182225 22.38916016 290.08129883 C21.05884766 291.41547852 21.05884766 291.41547852 19.70166016 292.77661133 C18.77353516 293.69700195 17.84541016 294.61739258 16.88916016 295.56567383 C15.96103516 296.5015332 15.03291016 297.43739258 14.07666016 298.40161133 C13.18978516 299.2859082 12.30291016 300.17020508 11.38916016 301.08129883 C10.57447266 301.89373047 9.75978516 302.70616211 8.92041016 303.54321289 C6.88916016 305.31567383 6.88916016 305.31567383 4.88916016 305.31567383 C4.65970703 305.86868164 4.43025391 306.42168945 4.19384766 306.99145508 C-7.50916373 327.83963404 -35.851915 338.8827382 -57.45849609 345.31176758 C-86.72483453 353.2042382 -122.38153515 348.4736617 -149.11083984 334.31567383 C-149.11083984 333.65567383 -149.11083984 332.99567383 -149.11083984 332.31567383 C-149.81724609 332.23575195 -150.52365234 332.15583008 -151.25146484 332.07348633 C-154.83838583 331.12285426 -156.93990352 329.47024054 -159.86083984 327.19067383 C-160.38742187 326.78107422 -160.91400391 326.37147461 -161.45654297 325.94946289 C-163.00984819 324.74060263 -164.56039532 323.52820096 -166.11083984 322.31567383 C-167.27873047 321.47649414 -167.27873047 321.47649414 -168.47021484 320.62036133 C-187.35886443 306.90196254 -201.17352327 285.53376353 -210.11083984 264.31567383 C-210.46919922 263.48551758 -210.82755859 262.65536133 -211.19677734 261.80004883 C-222.89555376 233.8285383 -222.03662377 200.58971047 -211.03369141 172.52416992 C-202.89555481 153.0486187 -190.08517677 138.8555766 -175.11083984 124.31567383 C-172.46145522 121.71020166 -170.01706273 119.20025584 -167.67333984 116.31567383 C-165.76847538 114.0855886 -164.15900212 112.43515329 -161.92333984 110.62817383 C-158.98329229 108.43895657 -158.98329229 108.43895657 -157.11083984 105.31567383 C-156.45083984 105.31567383 -155.79083984 105.31567383 -155.11083984 105.31567383 C-154.83682405 104.71717369 -154.56280827 104.11867355 -154.28048897 103.50203705 C-153.15271404 101.39394706 -152.07014104 100.01926486 -150.39645386 98.3338623 C-149.84466461 97.77354309 -149.29287537 97.21322388 -148.72436523 96.63592529 C-148.12084229 96.03330872 -147.51731934 95.43069214 -146.89550781 94.80981445 C-146.25767365 94.16526306 -145.61983948 93.52071167 -144.962677 92.85662842 C-142.84810822 90.72303974 -140.7260528 88.59709581 -138.60302734 86.47192383 C-137.11949311 84.98195685 -135.63610717 83.4918422 -134.15286255 82.00158691 C-131.03418996 78.87092619 -127.91139688 75.74444125 -124.78613281 72.62036133 C-120.82019349 68.65462354 -116.86809876 64.67540618 -112.91961479 60.69229889 C-109.85322752 57.60343186 -106.77754588 54.52394349 -103.69937515 51.44682312 C-102.241203 49.98631965 -100.78620392 48.52263986 -99.33471298 47.05549622 C-85.36461066 32.94910878 -70.77200053 21.44940809 -53.11083984 12.31567383 C-52.32837891 11.90961914 -51.54591797 11.50356445 -50.73974609 11.08520508 C-45.72659488 8.69101005 -40.42471708 6.98172067 -35.17333984 5.19067383 C-34.4335791 4.93648682 -33.69381836 4.6822998 -32.93164062 4.42041016 C-21.86756286 0.74979969 -11.58449259 -0.03047957 0 0 Z " fill="#2DAF8B" transform="translate(540.11083984375,366.684326171875)"/>
<path d="M0 0 C0.94875 0.3196875 1.8975 0.639375 2.875 0.96875 C9.34869211 3.31546339 14.5108075 6.89763828 20 11 C21.9164782 12.37526267 23.8331464 13.75026061 25.75 15.125 C27.5023424 16.41348706 29.25265409 17.70474518 31 19 C32.03125 19.763125 33.0625 20.52625 34.125 21.3125 C38.5811201 25.47800358 42.26518587 30.18871923 46 35 C46.59941406 35.74894531 47.19882812 36.49789062 47.81640625 37.26953125 C56.15282753 48.31383879 62.74341647 62.33311106 65 76 C65.20109375 77.14339844 65.4021875 78.28679687 65.609375 79.46484375 C67.98150108 94.73941236 67.58266053 108.99955614 64 124 C63.74476563 125.08667969 63.48953125 126.17335938 63.2265625 127.29296875 C61.49193513 133.6983588 58.94977846 139.54926031 55.9375 145.4375 C55.6163623 146.08066162 55.29522461 146.72382324 54.96435547 147.38647461 C47.68438688 160.99081132 36.36208139 172.12360646 25.56640625 182.9375 C24.19819363 184.31538769 22.83019159 185.69348452 21.46238708 187.07177734 C18.61779465 189.93416618 15.76724202 192.79045964 12.9128418 195.64306641 C9.27890337 199.27669863 5.66613918 202.93063468 2.05818272 206.59004211 C-0.7515567 209.43330256 -3.57499477 212.26265602 -6.4023304 215.08840942 C-7.73985267 216.42943951 -9.07259002 217.77526182 -10.40011406 219.12619019 C-20.48726022 229.37461965 -30.06581382 237.98361077 -45.25 238.25 C-58.40462767 238.07366451 -67.69812585 230.79900243 -76.59594727 221.72875977 C-77.29642181 221.027117 -77.99689636 220.32547424 -78.71859741 219.60256958 C-81.00827459 217.30576635 -83.28723973 214.99863547 -85.56640625 212.69140625 C-87.17032143 211.07934174 -88.7749841 209.46802062 -90.38035583 207.85740662 C-94.59065972 203.63004975 -98.7923055 199.39419767 -102.99169922 195.15600586 C-109.71309863 188.37524366 -116.44728449 181.60718649 -123.18214226 174.83979607 C-125.52238779 172.4856855 -127.85871944 170.12774658 -130.19447327 167.7691803 C-131.64070998 166.3129111 -133.08703031 164.85672494 -134.53344727 163.40063477 C-135.17314957 162.75262405 -135.81285187 162.10461334 -136.47193909 161.43696594 C-140.2583533 157.63224001 -144.16510187 154.02970421 -148.23588276 150.53039932 C-152.21799784 147.07585215 -155.93174794 143.33239641 -159.67333984 139.62182617 C-160.64025031 138.66646139 -161.6116178 137.71558634 -162.58740234 136.76928711 C-171.87228448 127.76316947 -179.9452862 118.61183596 -180.25 105.1875 C-179.94540944 93.40999818 -177.09323267 87.80012822 -169 79 C-168.45214844 78.39929688 -167.90429688 77.79859375 -167.33984375 77.1796875 C-166 76 -166 76 -164 76 C-163.505 74.515 -163.505 74.515 -163 73 C-161.56364441 71.58859253 -161.56364441 71.58859253 -159.66870117 70.04638672 C-154.45767617 65.62076287 -149.70894482 60.77504561 -144.92131996 55.90478897 C-143.26149273 54.21788302 -141.59695816 52.53575474 -139.93095398 50.85494995 C-135.19927233 46.08096687 -130.47030667 41.30440463 -125.75805664 36.51123047 C-122.8594083 33.56349778 -119.95060503 30.6261061 -117.03536034 27.69478989 C-115.9398525 26.58952103 -114.84796991 25.48064439 -113.76015663 24.36780167 C-99.38443382 9.66876518 -83.83386787 0.44851737 -64 -5 C-63.09765625 -5.25007813 -62.1953125 -5.50015625 -61.265625 -5.7578125 C-41.22972819 -10.28822229 -19.03832916 -6.72906462 0 0 Z " fill="#D1F4D9" transform="translate(586,389)"/>
<path d="M0 0 C4.24127308 3.42198195 8.15391562 7.14457075 12 11 C12.88816406 11.8765625 13.77632812 12.753125 14.69140625 13.65625 C26.42528706 25.83798885 33.05395442 40.69984812 37 57 C37.7434668 57.01869141 38.48693359 57.03738281 39.25292969 57.05664062 C59.26679578 57.68573595 77.92072761 60.06735625 94 73 C94.87527344 73.64324219 95.75054688 74.28648437 96.65234375 74.94921875 C111.99900034 86.67499065 121.60430056 103.77055899 124.70263672 122.72753906 C127.44096993 143.65398041 122.27378944 163.80890706 109.6875 180.8125 C104.28961951 187.26756906 98.05603537 194.35746692 91 199 C90.34 199 89.68 199 89 199 C88.6596875 198.030625 88.319375 197.06125 87.96875 196.0625 C80.96570195 176.52483256 71.51412185 159.86440391 58 144 C57.3915625 143.2678125 56.783125 142.535625 56.15625 141.78125 C52.13815431 137.03259145 47.7864255 132.96389534 43 129 C42.28457031 128.38511719 41.56914063 127.77023437 40.83203125 127.13671875 C30.98346752 118.90483717 19.97689236 111.68871931 7.94140625 107.1328125 C5.48242227 106.18579344 3.14383491 105.14227671 0.7578125 104.03125 C-3.94986828 101.92403507 -8.67946208 100.57002214 -13.6875 99.375 C-14.56905762 99.16335205 -15.45061523 98.9517041 -16.35888672 98.73364258 C-44.62898114 92.09808767 -79.64860603 91.36121913 -105.80078125 105.8359375 C-108.05527355 107.02925669 -110.28143298 107.84753533 -112.6875 108.6875 C-117.26009954 110.47927098 -121.22850038 112.87147624 -125.3125 115.5625 C-125.8799292 115.93141357 -126.4473584 116.30032715 -127.03198242 116.68041992 C-139.05594402 124.82750446 -149.34676041 135.09118357 -159.4751606 145.41652679 C-161.61772539 147.59915372 -163.76827007 149.77363286 -165.92112732 151.94610596 C-172.03051681 158.11301835 -178.12920941 164.29036776 -184.21411133 170.48144531 C-187.95970747 174.29127454 -191.71723477 178.08898009 -195.48267937 181.87918854 C-196.91034738 183.32113144 -198.3333229 184.76773596 -199.75149727 186.21901703 C-201.72100184 188.23395768 -203.70522709 190.2331983 -205.69360352 192.22949219 C-206.5671196 193.13468597 -206.5671196 193.13468597 -207.45828247 194.0581665 C-209.10084534 195.68865967 -209.10084534 195.68865967 -212 198 C-215.36074426 197.56240642 -217.48122987 196.2489019 -220 194 C-220 193.34 -220 192.68 -220 192 C-220.639375 191.731875 -221.27875 191.46375 -221.9375 191.1875 C-224 190 -224 190 -225 187 C-225.66 187 -226.32 187 -227 187 C-243.32730342 168.60832489 -247.49394743 146.9791019 -246.27490234 123.16503906 C-244.89506854 107.27856886 -237.33897035 93.84801139 -227 82 C-226.48050781 81.38511719 -225.96101563 80.77023437 -225.42578125 80.13671875 C-219.95630143 74.1437119 -212.89019041 70.14702327 -206 66 C-205.31164062 65.56429687 -204.62328125 65.12859375 -203.9140625 64.6796875 C-189.45279076 56.36936392 -170.96307334 56.7913858 -155 59 C-155.06380859 57.71802734 -155.06380859 57.71802734 -155.12890625 56.41015625 C-154.47240554 39.0427283 -141.16029328 21.36848177 -129.421875 9.36328125 C-94.07734845 -23.36930702 -39.45033352 -29.26117453 0 0 Z " fill="#DAEFFC" transform="translate(594,255)"/>
<path d="M0 0 C0.71397949 0.1551709 1.42795898 0.3103418 2.16357422 0.47021484 C10.15704149 2.22960264 17.64227348 4.35312686 25 8 C25.95777344 8.41894531 26.91554688 8.83789062 27.90234375 9.26953125 C41.58060355 15.28796556 53.43754823 22.70308351 64.53173828 32.6875 C65.90733288 33.91716354 67.31024952 35.11606865 68.71484375 36.3125 C86.56513335 51.71490705 105.57321792 77.94113412 109 102 C126.90869627 88.93616842 138.44456208 72.58823685 144 51 C144.66 51.33 145.32 51.66 146 52 C146.92150228 71.24915866 139.76164401 87.78948927 127.03515625 102 C124.96293164 104.16688775 122.81089057 105.94727035 120.37109375 107.6875 C113.56660047 112.28322351 113.56660047 112.28322351 110.40234375 119.5390625 C110.65555948 123.00083369 111.1000109 126.31525291 111.68359375 129.72998047 C112.25215838 133.8090807 112.20987905 137.88814332 112.1875 142 C112.18484131 142.84570557 112.18218262 143.69141113 112.17944336 144.56274414 C111.9933595 161.99595225 108.30279938 178.13194923 101 194 C100.71640625 194.61633301 100.4328125 195.23266602 100.140625 195.86767578 C91.53141928 214.35831624 79.30459737 229.56214129 65.45458984 244.43212891 C63.96793356 246.03456373 62.49249271 247.64669258 61.01953125 249.26171875 C55.38522487 255.42789051 49.64838383 261.43746755 43.66796875 267.26953125 C41.67125346 269.31302171 39.82375885 271.3546807 37.97583008 273.52416992 C33.46007706 278.70222505 28.59672673 283.50947628 23.71875 288.34375 C22.73631622 289.32176419 21.75418512 290.30008251 20.77233887 291.27868652 C17.16280682 294.87498984 13.54779294 298.46576596 9.93292236 302.05670166 C6.8661925 305.10355579 3.80162086 308.15255126 0.73976135 311.20429993 C-0.67991157 312.61758629 -2.10266999 314.02777111 -3.5255127 315.43786621 C-8.04217225 319.93752947 -12.42677921 324.48259183 -16.56622314 329.33326721 C-23.53326689 337.43229615 -31.55141056 344.49632044 -40 351 C-40.77601563 351.60457031 -41.55203125 352.20914062 -42.3515625 352.83203125 C-71.5357035 374.45172099 -108.73632502 380.1521388 -144 375 C-149.12490857 374.06456254 -154.05403804 372.62778495 -159 371 C-160.13050781 370.65195312 -161.26101563 370.30390625 -162.42578125 369.9453125 C-176.45417279 365.33802649 -189.48238755 358.22428254 -201 349 C-201.53592773 348.57477051 -202.07185547 348.14954102 -202.62402344 347.71142578 C-209.86846256 341.9402568 -209.86846256 341.9402568 -213 339 C-213 338.34 -213 337.68 -213 337 C-213.66 337 -214.32 337 -215 337 C-216.76367006 335.0403666 -218.38951734 333.08117527 -220 331 C-220.73041504 330.05918579 -220.73041504 330.05918579 -221.47558594 329.09936523 C-234.90456965 311.49175116 -244.04468766 292.60473218 -249.25 271.0625 C-249.5133313 269.9789624 -249.5133313 269.9789624 -249.78198242 268.87353516 C-250.63597477 265.18597808 -251.20756378 261.78803902 -251 258 C-248.98466493 261.0230026 -248.27492784 263.21666293 -247.3125 266.6875 C-241.00684223 287.71417292 -229.84683984 304.8101952 -215.8125 321.4375 C-215.33796387 322.0044458 -214.86342773 322.5713916 -214.37451172 323.15551758 C-208.8175234 329.63611831 -202.23331269 334.71778276 -195.375 339.75 C-194.73304688 340.23082031 -194.09109375 340.71164062 -193.4296875 341.20703125 C-190.06810775 343.67999668 -187.00829764 345.67925825 -183 347 C-183 347.66 -183 348.32 -183 349 C-181.7934375 349.4021875 -181.7934375 349.4021875 -180.5625 349.8125 C-178.11867807 350.62710731 -175.68139281 351.46151252 -173.25 352.3125 C-165.58969392 354.85303922 -157.80352962 356.95157348 -150 359 C-148.7934375 359.32613281 -147.586875 359.65226562 -146.34375 359.98828125 C-115.09526161 367.41331622 -81.03837978 359.41736939 -53.94140625 343.01171875 C-45.14425229 336.99507295 -37.3730335 329.6640743 -30 322 C-28.33634402 320.33022764 -26.66902341 318.66439295 -25 317 C-23.51024345 315.5105899 -22.02067984 314.02098681 -20.53125 312.53125 C-17.17708333 309.17708333 -13.82291667 305.82291667 -10.46875 302.46875 C-9.29916748 301.29807983 -9.29916748 301.29807983 -8.10595703 300.10375977 C-6.85994047 298.85904324 -5.61177922 297.61645728 -4.35888672 296.37866211 C-2.46457976 294.50617258 -0.7531711 292.67912243 0.875 290.5625 C3.14553746 287.82449895 5.61189569 285.7388272 8.3359375 283.47265625 C10.52786703 281.53285007 12.21846683 279.31599312 14 277 C15.65311828 275.3198942 17.32181587 273.65506906 19 272 C19.84852539 271.15671143 20.69705078 270.31342285 21.57128906 269.44458008 C22.46041992 268.56181396 23.34955078 267.67904785 24.265625 266.76953125 C25.75135928 265.29115534 27.2366232 263.8123087 28.72167969 262.33325195 C29.74684429 261.31316404 30.77289739 260.29396832 31.79980469 259.27563477 C33.29075558 257.79676883 34.7784918 256.3147349 36.265625 254.83203125 C37.15024414 253.95264893 38.03486328 253.0732666 38.94628906 252.16723633 C41.03379889 250.17457485 41.03379889 250.17457485 42 248 C42.66 248 43.32 248 44 248 C44.2475 247.38125 44.495 246.7625 44.75 246.125 C46.23740369 243.59641373 47.43678009 243.28160996 50 242 C50.28746094 241.40316406 50.57492187 240.80632812 50.87109375 240.19140625 C52.23286777 237.54796256 53.90144302 235.97659257 56.0625 233.9375 C61.98833721 228.15502982 67.03406953 221.74756558 72.1640625 215.265625 C74 213 74 213 75.5625 211.5 C79.21513414 207.68855568 80.97647719 202.78694535 83 198 C83.53445122 196.75100016 84.06960319 195.50229994 84.60546875 194.25390625 C84.86650391 193.64482422 85.12753906 193.03574219 85.39648438 192.40820312 C86.59765625 189.60546875 87.79882812 186.80273438 89 184 C89.66 184 90.32 184 91 184 C91.103125 182.72125 91.20625 181.4425 91.3125 180.125 C91.6920099 176.64977361 92.36992058 173.51425001 93.4375 170.1875 C102.33366648 141.49300225 96.64596386 108.90286434 83.24609375 82.55078125 C67.81940465 54.9293444 43.97119067 34.08526796 14.4375 22.5625 C13.63642822 22.24466553 12.83535645 21.92683105 12.01000977 21.59936523 C-1.21534703 16.70093859 -14.57595209 15.47949357 -28.56347656 15.55395508 C-30.99890064 15.56249614 -33.43199075 15.533506 -35.8671875 15.50195312 C-64.7286761 15.37492144 -94.5357862 27.86390256 -116 47 C-117.06891479 47.93391823 -117.06891479 47.93391823 -118.15942383 48.88670349 C-125.28412144 55.18029988 -131.97341468 61.86992971 -138.66351318 68.61891365 C-140.72875165 70.7017596 -142.7977006 72.78085553 -144.86767578 74.85899353 C-150.74440873 80.76001342 -156.61521875 86.66690158 -162.48193359 92.57788086 C-166.08780704 96.21044729 -169.69846541 99.83819938 -173.31216431 103.46298027 C-174.6856353 104.84267018 -176.05720449 106.22425597 -177.42684937 107.60774422 C-179.32956534 109.52955501 -181.23825016 111.44523867 -183.1484375 113.35961914 C-183.71463303 113.93457626 -184.28082855 114.50953339 -184.86418152 115.10191345 C-188.77209964 119 -188.77209964 119 -191 119 C-191.33 118.01 -191.66 117.02 -192 116 C-195.00007271 114.29144978 -195.00007271 114.29144978 -198 113 C-198 112.34 -198 111.68 -198 111 C-198.556875 110.7525 -199.11375 110.505 -199.6875 110.25 C-209.43976269 104.97850665 -215.06188559 94.55458918 -220 85 C-220.53625 84.05125 -221.0725 83.1025 -221.625 82.125 C-224.59410944 75.37702401 -226.62984183 68.4006415 -226 61 C-225.67 60.34 -225.34 59.68 -225 59 C-224.34 59 -223.68 59 -223 59 C-222.731875 59.78761719 -222.46375 60.57523437 -222.1875 61.38671875 C-219.00033498 70.24577941 -215.03261523 79.96738477 -208.2578125 86.7421875 C-207.84273438 87.15726562 -207.42765625 87.57234375 -207 88 C-207 88.66 -207 89.32 -207 90 C-206.34 90 -205.68 90 -205 90 C-203.6328125 91.42578125 -203.6328125 91.42578125 -202.125 93.3125 C-198.99392229 97.14851061 -198.99392229 97.14851061 -195 100 C-191.83640476 99.55639383 -190.20687469 98.57773966 -187.98695374 96.32752991 C-187.41966553 95.76003021 -186.85237732 95.19253052 -186.26789856 94.60783386 C-185.65750229 93.98193863 -185.04710602 93.3560434 -184.41821289 92.71118164 C-183.76551422 92.05410217 -183.11281555 91.39702271 -182.44033813 90.72003174 C-181.0221891 89.29046087 -179.60751677 87.85743469 -178.1959095 86.42140388 C-175.9517725 84.1389156 -173.69834535 81.86598217 -171.44224548 79.59532166 C-165.8325294 73.94551068 -160.23892769 68.2798321 -154.64526367 62.61413574 C-149.92994338 57.83920361 -145.20825444 53.07073916 -140.47820854 48.31039238 C-138.27593634 46.0889013 -136.08303234 43.85845266 -133.89039612 41.62745667 C-118.75209927 26.32376439 -102.36524109 13.5562067 -82 6 C-81.07574219 5.64292969 -80.15148437 5.28585937 -79.19921875 4.91796875 C-54.04623323 -4.58110782 -26.2044816 -5.91474354 0 0 Z " fill="#124BA9" transform="translate(574,352)"/>
<path d="M0 0 C6.95262236 0.01787307 13.74899734 0.4049109 20.6640625 1.1328125 C20.3340625 7.0728125 20.0040625 13.0128125 19.6640625 19.1328125 C21.9740625 19.4628125 24.2840625 19.7928125 26.6640625 20.1328125 C34.52043329 23.31569486 41.57544869 27.18916568 47.6640625 33.1328125 C46.26024874 37.39003032 44.22339877 40.00975094 41.1640625 43.2578125 C38.74958142 45.83691729 36.62671843 48.18882861 34.6640625 51.1328125 C31.12065352 49.81974073 28.08977049 48.23461518 24.9140625 46.1953125 C15.57947721 40.58907846 6.56900217 38.60924007 -4.3359375 40.1328125 C-8.03611101 42.17593293 -9.98736923 43.60996009 -12.3359375 47.1328125 C-12.98572506 52.75953873 -12.98572506 52.75953873 -10.65234375 57.703125 C-5.28852386 63.32925649 2.74903602 65.84881139 9.9140625 68.5078125 C15.10931718 70.44820883 20.07568451 72.67183301 25.0390625 75.1328125 C25.69293945 75.4529834 26.34681641 75.7731543 27.02050781 76.10302734 C33.27091275 79.25688679 39.18644236 82.56862027 42.9765625 88.6328125 C43.44707031 89.365 43.91757812 90.0971875 44.40234375 90.8515625 C48.77025911 98.74896984 48.96040855 107.63336508 46.90625 116.34765625 C42.96236622 127.66691323 36.0271625 135.26881445 25.6640625 141.1328125 C20.32453272 143.49029847 16.62375752 144.1328125 10.6640625 144.1328125 C10.3340625 149.7428125 10.0040625 155.3528125 9.6640625 161.1328125 C1.7440625 161.1328125 -6.1759375 161.1328125 -14.3359375 161.1328125 C-14.3359375 148.7578125 -14.3359375 148.7578125 -13.3359375 144.1328125 C-14.39167969 143.9471875 -14.39167969 143.9471875 -15.46875 143.7578125 C-27.64385284 141.21471008 -38.09889097 135.54657996 -46.3359375 126.1328125 C-44.73697556 122.4681646 -42.45510327 119.68905664 -39.8984375 116.6328125 C-37.29968037 113.51601647 -34.73642375 110.40550115 -32.3359375 107.1328125 C-29.14241471 108.6123804 -26.42660182 110.43611782 -23.5859375 112.5078125 C-13.20478592 119.85730034 -5.05898821 121.93072332 7.6640625 121.1328125 C12.79830103 120.0406043 15.76045011 117.48823108 18.6640625 113.1328125 C20.23861989 109.98369771 20.01205368 107.61272434 19.6640625 104.1328125 C14.38728711 95.33818685 3.48059997 92.55934605 -5.7109375 89.2578125 C-17.30585144 84.93905913 -27.99110688 80.60789127 -35.3359375 70.1328125 C-35.76777344 69.5759375 -36.19960938 69.0190625 -36.64453125 68.4453125 C-41.36506772 61.12766427 -40.07736316 50.68561743 -38.96875 42.3828125 C-36.72521368 33.77746771 -29.46883053 27.17764866 -22.1484375 22.6328125 C-17.14325204 19.90271134 -12.91420368 18.03487522 -7.15625 18.09375 C-5.89554688 18.10664063 -4.63484375 18.11953125 -3.3359375 18.1328125 C-3.34753906 16.91722656 -3.35914063 15.70164062 -3.37109375 14.44921875 C-3.38047028 12.86458486 -3.38957063 11.27994932 -3.3984375 9.6953125 C-3.40681641 8.89287109 -3.41519531 8.09042969 -3.42382812 7.26367188 C-3.4324518 5.21986029 -3.388219 3.17597348 -3.3359375 1.1328125 C-2.3359375 0.1328125 -2.3359375 0.1328125 0 0 Z " fill="#1A998D" transform="translate(542.3359375,418.8671875)"/>
<path d="M0 0 C2.4882471 0.00314112 4.97527961 -0.02029568 7.46337891 -0.0456543 C21.55780337 -0.10384004 34.78730152 1.41973051 47.88916016 7.00317383 C49.06865234 7.48367188 49.06865234 7.48367188 50.27197266 7.97387695 C52.14989791 8.74107812 54.02047221 9.52623969 55.88916016 10.31567383 C55.55916016 10.97567383 55.22916016 11.63567383 54.88916016 12.31567383 C53.91978516 11.80004883 52.95041016 11.28442383 51.95166016 10.75317383 C47.47390743 8.78956915 43.58360869 9.43213816 38.88916016 10.31567383 C38.88916016 9.65567383 38.88916016 8.99567383 38.88916016 8.31567383 C37.62072266 8.22479492 37.62072266 8.22479492 36.32666016 8.13208008 C35.19228516 8.04829102 34.05791016 7.96450195 32.88916016 7.87817383 C31.77541016 7.79696289 30.66166016 7.71575195 29.51416016 7.63208008 C27.07780992 7.41942451 24.64649147 7.13947454 22.22509766 6.79614258 C0.69275231 4.04122333 -20.9340102 6.51765942 -41.11083984 14.31567383 C-42.05709229 14.67870605 -42.05709229 14.67870605 -43.02246094 15.04907227 C-51.14385912 18.21929401 -58.79850589 22.06030702 -66.29833984 26.50317383 C-66.98581299 26.89972168 -67.67328613 27.29626953 -68.3815918 27.70483398 C-84.49583951 37.58964831 -97.53284579 53.525456 -110.86865234 66.80004883 C-111.95714164 67.88316115 -113.04563117 68.96627323 -114.13412094 70.04938507 C-118.66616377 74.55988617 -123.1968006 79.07179182 -127.72375679 83.58739853 C-134.14666033 89.99407273 -140.57792522 96.39208275 -147.02111542 102.77835631 C-151.59006366 107.30834776 -156.14914552 111.84812537 -160.70128524 116.39500642 C-163.4032381 119.09334569 -166.10901625 121.78753305 -168.82556534 124.47118378 C-188.06186646 143.48591144 -205.10535543 162.86979984 -210.6184082 190.05273438 C-210.99587309 191.78735115 -211.42274155 193.51128034 -211.87084961 195.22900391 C-213.88867532 203.1517881 -214.55186588 210.46794969 -214.42333984 218.62817383 C-214.40859619 220.3849646 -214.40859619 220.3849646 -214.39355469 222.17724609 C-214.4835261 237.7080857 -214.4835261 237.7080857 -210.11083984 252.31567383 C-209.70027909 254.11623767 -209.34907922 255.93104702 -209.04833984 257.75317383 C-208.45361738 261.28710318 -207.83084625 264.80484611 -207.11083984 268.31567383 C-211.96359398 265.88929676 -213.3797487 256.49345803 -215.03271484 251.56958008 C-223.83419925 222.06664512 -219.94890746 188.64922037 -205.86083984 161.50317383 C-197.92767037 146.92719969 -186.92343833 135.78556623 -175.11083984 124.31567383 C-172.46145522 121.71020166 -170.01706273 119.20025584 -167.67333984 116.31567383 C-165.76847538 114.0855886 -164.15900212 112.43515329 -161.92333984 110.62817383 C-158.98329229 108.43895657 -158.98329229 108.43895657 -157.11083984 105.31567383 C-156.45083984 105.31567383 -155.79083984 105.31567383 -155.11083984 105.31567383 C-154.83682405 104.71717369 -154.56280827 104.11867355 -154.28048897 103.50203705 C-153.15271404 101.39394706 -152.07014104 100.01926486 -150.39645386 98.3338623 C-149.84466461 97.77354309 -149.29287537 97.21322388 -148.72436523 96.63592529 C-148.12084229 96.03330872 -147.51731934 95.43069214 -146.89550781 94.80981445 C-146.25767365 94.16526306 -145.61983948 93.52071167 -144.962677 92.85662842 C-142.84810822 90.72303974 -140.7260528 88.59709581 -138.60302734 86.47192383 C-137.11949311 84.98195685 -135.63610717 83.4918422 -134.15286255 82.00158691 C-131.03418996 78.87092619 -127.91139688 75.74444125 -124.78613281 72.62036133 C-120.82019349 68.65462354 -116.86809876 64.67540618 -112.91961479 60.69229889 C-109.85322752 57.60343186 -106.77754588 54.52394349 -103.69937515 51.44682312 C-102.241203 49.98631965 -100.78620392 48.52263986 -99.33471298 47.05549622 C-85.36461066 32.94910878 -70.77200053 21.44940809 -53.11083984 12.31567383 C-52.32837891 11.90961914 -51.54591797 11.50356445 -50.73974609 11.08520508 C-45.72659488 8.69101005 -40.42471708 6.98172067 -35.17333984 5.19067383 C-34.4335791 4.93648682 -33.69381836 4.6822998 -32.93164062 4.42041016 C-21.86756286 0.74979969 -11.58449259 -0.03047957 0 0 Z " fill="#7DD7B1" transform="translate(540.11083984375,366.684326171875)"/>
<path d="M0 0 C2.43526432 0.02903772 4.86834558 0.02053284 7.30371094 0.00756836 C21.25154507 0.02402126 34.48304176 1.63384124 47.43652344 7.15405273 C48.22285156 7.47438477 49.00917969 7.7947168 49.81933594 8.12475586 C51.69726119 8.89195703 53.5678355 9.67711859 55.43652344 10.46655273 C55.10652344 11.12655273 54.77652344 11.78655273 54.43652344 12.46655273 C53.46714844 11.95092773 52.49777344 11.43530273 51.49902344 10.90405273 C47.02127071 8.94044806 43.13097197 9.58301707 38.43652344 10.46655273 C38.43652344 9.80655273 38.43652344 9.14655273 38.43652344 8.46655273 C37.59089844 8.4059668 36.74527344 8.34538086 35.87402344 8.28295898 C34.73964844 8.19916992 33.60527344 8.11538086 32.43652344 8.02905273 C31.32277344 7.9478418 30.20902344 7.86663086 29.06152344 7.78295898 C26.6251732 7.57030341 24.19385475 7.29035344 21.77246094 6.94702148 C0.24320957 4.19249809 -21.39001434 6.6650136 -41.56347656 14.46655273 C-42.20494629 14.7138916 -42.84641602 14.96123047 -43.50732422 15.21606445 C-52.44556512 18.72397718 -60.52684306 23.01177778 -68.51245117 28.35400391 C-70.16193888 29.4450549 -71.85906861 30.46345977 -73.56347656 31.46655273 C-74.22347656 31.13655273 -74.88347656 30.80655273 -75.56347656 30.46655273 C-74.86222656 29.97155273 -74.16097656 29.47655273 -73.43847656 28.96655273 C-70.9501351 26.80277755 -69.83222971 25.40007161 -68.12597656 22.71655273 C-60.23462583 11.96833325 -44.84138928 7.9212377 -32.56347656 4.46655273 C-31.41975586 4.12164795 -30.27603516 3.77674316 -29.09765625 3.42138672 C-19.33284402 0.61149374 -10.13607339 -0.13133321 0 0 Z " fill="#88E0B0" transform="translate(540.5634765625,366.533447265625)"/>
<path d="M0 0 C0.33 0 0.66 0 1 0 C0.67 7.59 0.34 15.18 0 23 C0.66 23 1.32 23 2 23 C1.98952637 23.55236328 1.97905273 24.10472656 1.96826172 24.67382812 C0.92963226 44.88488602 0.92963226 44.88488602 6 64 C6.41056076 65.80056384 6.76176062 67.61537319 7.0625 69.4375 C7.65722246 72.97142935 8.27999359 76.48917228 9 80 C4.14724586 77.57362293 2.73109114 68.1777842 1.078125 63.25390625 C-5.09051403 42.57637645 -3.97730203 20.92818451 0 0 Z " fill="#71D1AC" transform="translate(324,555)"/>
<path d="M0 0 C10.32708838 1.8140032 19.4182412 4.85327245 29 9 C28.67 9.66 28.34 10.32 28 11 C27.030625 10.484375 26.06125 9.96875 25.0625 9.4375 C20.58474728 7.47389532 16.69444853 8.11646433 12 9 C12 8.34 12 7.68 12 7 C11.154375 6.93941406 10.30875 6.87882812 9.4375 6.81640625 C8.303125 6.73261719 7.16875 6.64882813 6 6.5625 C4.329375 6.44068359 4.329375 6.44068359 2.625 6.31640625 C0.26291849 6.11023319 -2.09425596 5.83088772 -4.4375 5.46875 C-11.23449423 4.5904222 -18.15865237 4.89636188 -25 4.9375 C-26.45702971 4.94252424 -27.9140611 4.94708551 -29.37109375 4.95117188 C-32.9140977 4.96210612 -36.45703797 4.97932 -40 5 C-38 3 -38 3 -34.28466797 2.77294922 C-32.68713948 2.77326649 -31.08958973 2.78460018 -29.4921875 2.8046875 C-28.23125778 2.80893234 -28.23125778 2.80893234 -26.94485474 2.81326294 C-24.25475954 2.8244757 -21.5649949 2.84958197 -18.875 2.875 C-17.05339022 2.8850284 -15.23177523 2.89415449 -13.41015625 2.90234375 C-8.93997642 2.92441858 -4.47004429 2.95895566 0 3 C0 2.01 0 1.02 0 0 Z " fill="#6FD7A2" transform="translate(567,368)"/>
<path d="M0 0 C3.80067914 0.47950135 7.48888547 1.07947607 11.21484375 1.97265625 C29.44333713 6.25554648 47.57669484 6.15893968 66 3 C68.3325803 2.66143729 70.66573403 2.32673836 73 2 C62.92728197 10.55363062 41.66225887 8.76036917 29 8 C18.97624701 6.9692799 9.42212512 4.57641358 0 1 C0 0.67 0 0.34 0 0 Z " fill="#0F638E" transform="translate(412,709)"/>
<path d="M0 0 C0.66 0.33 1.32 0.66 2 1 C-1.96 4.96 -5.92 8.92 -10 13 C-10 10 -10 10 -7.8125 7.51953125 C-6.884375 6.62621094 -5.95625 5.73289062 -5 4.8125 C-4.071875 3.91144531 -3.14375 3.01039063 -2.1875 2.08203125 C-1.1046875 1.05142578 -1.1046875 1.05142578 0 0 Z M-13 13 C-12.01 13.495 -12.01 13.495 -11 14 C-11.99 14.495 -11.99 14.495 -13 15 C-13 14.34 -13 13.68 -13 13 Z M-15 15 C-14.34 15.33 -13.68 15.66 -13 16 C-22.9 25.9 -32.8 35.8 -43 46 C-43 43 -43 43 -40.8828125 40.66015625 C-39.97273438 39.80292969 -39.06265625 38.94570313 -38.125 38.0625 C-35.01814279 35.12824597 -32.84083598 32.81803019 -31 29 C-29.6156127 27.43066508 -28.1722357 25.91225428 -26.6875 24.4375 C-25.92824219 23.67308594 -25.16898437 22.90867187 -24.38671875 22.12109375 C-22.04543022 20.04037416 -19.70345192 18.56229634 -17 17 C-16.34 16.34 -15.68 15.68 -15 15 Z " fill="#6FD89F" transform="translate(423,437)"/>
<path d="M0 0 C0.66 0.33 1.32 0.66 2 1 C2.57575403 13.02686188 0.41053763 22.63135589 -4.875 33.375 C-5.20242188 34.04112305 -5.52984375 34.70724609 -5.8671875 35.39355469 C-8.11949858 39.76840502 -10.73148116 43.32149273 -14 47 C-14 43.44027875 -13.13400425 42.28307106 -11.25 39.3125 C-10.70085938 38.41273438 -10.15171875 37.51296875 -9.5859375 36.5859375 C-8.67991577 35.10863114 -7.77061571 33.63329722 -6.8515625 32.1640625 C-2.86653998 25.11854268 -1.67394163 16.83547147 0 9 C-0.66 9 -1.32 9 -2 9 C-1.34 6.03 -0.68 3.06 0 0 Z " fill="#1A5BC6" transform="translate(718,403)"/>
<path d="M0 0 C0.66 0.33 1.32 0.66 2 1 C1.21753906 1.77085937 0.43507813 2.54171875 -0.37109375 3.3359375 C-1.39336057 4.34882573 -2.41548881 5.36185384 -3.4375 6.375 C-4.2119043 7.13683594 -4.2119043 7.13683594 -5.00195312 7.9140625 C-7.857133 10.68568936 -7.857133 10.68568936 -10 14 C-10.99 13.67 -11.98 13.34 -13 13 C-8.66666667 8.66666667 -4.33333333 4.33333333 0 0 Z M-15 13 C-14.34 13.33 -13.68 13.66 -13 14 C-19.93 20.93 -26.86 27.86 -34 35 C-34.66 34.67 -35.32 34.34 -36 34 C-29 27 -22 20 -15 13 Z " fill="#85DEB6" transform="translate(389,469)"/>
<path d="M0 0 C0.33 0 0.66 0 1 0 C1.05553449 1.33282775 1.09346189 2.66638865 1.125 4 C1.14820313 4.7425 1.17140625 5.485 1.1953125 6.25 C1 9 1 9 0.0625 12.34375 C-1.67486344 18.90472499 -1.73678819 25.75303725 -2.125 32.5 C-2.21155667 33.90889629 -2.29879062 35.31775114 -2.38671875 36.7265625 C-2.59779536 40.15069424 -2.80201731 43.57509041 -3 47 C-3.33 47 -3.66 47 -4 47 C-4.19324704 36.30699712 -4.17901452 25.71464678 -3.125 15.0625 C-3.04652832 14.24168945 -2.96805664 13.42087891 -2.88720703 12.57519531 C-2.40765446 8.14048459 -1.60361837 4.1977069 0 0 Z " fill="#81DFB1" transform="translate(327,549)"/>
<path d="M0 0 C0.33 0 0.66 0 1 0 C0.86040799 3.22946798 0.71221895 6.45848691 0.5625 9.6875 C0.50352539 11.05551758 0.50352539 11.05551758 0.44335938 12.45117188 C0.40146484 13.33740234 0.35957031 14.22363281 0.31640625 15.13671875 C0.27974854 15.94842529 0.24309082 16.76013184 0.20532227 17.59643555 C-0.01052671 20.12322889 -0.4868196 22.51829166 -1 25 C-1.21698487 27.43505237 -1.40290745 29.87301384 -1.5625 32.3125 C-1.64628906 33.56675781 -1.73007812 34.82101562 -1.81640625 36.11328125 C-1.87699219 37.06589844 -1.93757813 38.01851562 -2 39 C-2.33 39 -2.66 39 -3 39 C-3.3801521 25.63835776 -2.49615603 13.1345353 0 0 Z " fill="#70C0BF" transform="translate(324,555)"/>
<path d="M0 0 C0.33 0 0.66 0 1 0 C1 2.64 1 5.28 1 8 C1.66 8 2.32 8 3 8 C3.05402274 10.10388569 3.09280256 12.20816714 3.125 14.3125 C3.14820313 15.48425781 3.17140625 16.65601563 3.1953125 17.86328125 C3 21 3 21 1 24 C0.01956036 21.05868109 -0.11621202 19.17498335 -0.09765625 16.11328125 C-0.09443359 15.17548828 -0.09121094 14.23769531 -0.08789062 13.27148438 C-0.07532227 11.80678711 -0.07532227 11.80678711 -0.0625 10.3125 C-0.05798828 9.32443359 -0.05347656 8.33636719 -0.04882812 7.31835938 C-0.03704303 4.87884526 -0.02059011 2.43945311 0 0 Z " fill="#EFF7FD" transform="translate(348,381)"/>
<path d="M0 0 C2.10837598 3.16256397 2.97900679 5.80800373 4.0625 9.4375 C4.57490234 11.13712891 4.57490234 11.13712891 5.09765625 12.87109375 C5.39542969 13.90363281 5.69320313 14.93617188 6 16 C6.24621094 16.73347656 6.49242187 17.46695313 6.74609375 18.22265625 C7 20 7 20 5 23 C4.5447576 21.42416092 4.09132831 19.84778562 3.64453125 18.26953125 C3.16989013 16.59821917 2.6868789 14.92927859 2.19921875 13.26171875 C1.92722656 12.30910156 1.65523438 11.35648438 1.375 10.375 C0.98441406 9.02535156 0.98441406 9.02535156 0.5859375 7.6484375 C0.00183284 5.00828444 -0.10697891 2.69392336 0 0 Z " fill="#1A5CB6" transform="translate(323,610)"/>
<path d="M0 0 C0.66 0 1.32 0 2 0 C2 2.64 2 5.28 2 8 C1.360625 8.28875 0.72125 8.5775 0.0625 8.875 C-2.15206079 9.82823451 -2.15206079 9.82823451 -3 12 C-3.66 12 -4.32 12 -5 12 C-3.68938409 7.76570244 -2.05643741 3.92592596 0 0 Z " fill="#75D2B7" transform="translate(335,527)"/>
<path d="M0 0 C0.66 0.33 1.32 0.66 2 1 C3.52073222 6.71500981 2.98120847 11.52254128 1 17 C0.67 17 0.34 17 0 17 C-1.33257403 5.47835991 -1.33257403 5.47835991 0 0 Z " fill="#2462C9" transform="translate(347,401)"/>
<path d="M0 0 C1 2 1 2 0.29296875 4.27734375 C-0.25423828 5.59412109 -0.25423828 5.59412109 -0.8125 6.9375 C-1.16957031 7.81277344 -1.52664063 8.68804688 -1.89453125 9.58984375 C-3 12 -3 12 -5 15 C-5 11.37 -5 7.74 -5 4 C-4.34 4 -3.68 4 -3 4 C-2.67 3.01 -2.34 2.02 -2 1 C-1.34 0.67 -0.68 0.34 0 0 Z " fill="#73DBA3" transform="translate(335,535)"/>
<path d="M0 0 C2.31 0.33 4.62 0.66 7 1 C7.33 2.32 7.66 3.64 8 5 C5.69 5 3.38 5 1 5 C0.67 3.35 0.34 1.7 0 0 Z " fill="#76D8A8" transform="translate(567,368)"/>
<path d="M0 0 C-1 3 -1 3 -3.07421875 4.3515625 C-7.70240713 6.6068531 -11.78498862 8.58828858 -17 9 C-15.40434605 5.8086921 -12.15338879 4.88215291 -9.0625 3.375 C-8.41603516 3.05015625 -7.76957031 2.7253125 -7.10351562 2.390625 C-2.26702009 0 -2.26702009 0 0 0 Z " fill="#0E648F" transform="translate(520,696)"/>
<path d="M0 0 C1.65322266 0.01740234 1.65322266 0.01740234 3.33984375 0.03515625 C4.99693359 0.04869141 4.99693359 0.04869141 6.6875 0.0625 C7.54214844 0.07410156 8.39679687 0.08570313 9.27734375 0.09765625 C9.27734375 0.42765625 9.27734375 0.75765625 9.27734375 1.09765625 C5.97734375 1.42765625 2.67734375 1.75765625 -0.72265625 2.09765625 C-1.05265625 4.40765625 -1.38265625 6.71765625 -1.72265625 9.09765625 C-2.38265625 9.09765625 -3.04265625 9.09765625 -3.72265625 9.09765625 C-3.8203125 2.9453125 -3.8203125 2.9453125 -3.72265625 1.09765625 C-2.72265625 0.09765625 -2.72265625 0.09765625 0 0 Z " fill="#43B39B" transform="translate(542.72265625,418.90234375)"/>
<path d="M0 0 C0.66 0.33 1.32 0.66 2 1 C2 3.31 2 5.62 2 8 C0.68 8.33 -0.64 8.66 -2 9 C-1.34 6.03 -0.68 3.06 0 0 Z " fill="#1551C2" transform="translate(718,403)"/>
<path d="M0 0 C0.66 0.33 1.32 0.66 2 1 C-1.3 3.97 -4.6 6.94 -8 10 C-8.33 8.68 -8.66 7.36 -9 6 C-7.2421875 5.0234375 -5.484375 4.046875 -3.7265625 3.0703125 C-1.8387386 1.99102726 -1.8387386 1.99102726 0 0 Z " fill="#1C58BF" transform="translate(692,459)"/>
<path d="M0 0 C0.99 0 1.98 0 3 0 C3.125 3.375 3.125 3.375 3 7 C2.34 7.66 1.68 8.32 1 9 C0.67 6.03 0.34 3.06 0 0 Z " fill="#32B095" transform="translate(560,420)"/>
<path d="M0 0 C0.66 0 1.32 0 2 0 C0.55746343 3.36591866 -1.33264727 5.51047079 -4 8 C-4.66 7.67 -5.32 7.34 -6 7 C-5.04882866 5.8274869 -4.08882991 4.66212985 -3.125 3.5 C-2.59132813 2.8503125 -2.05765625 2.200625 -1.5078125 1.53125 C-0.76144531 0.77328125 -0.76144531 0.77328125 0 0 Z " fill="#2FA39C" transform="translate(510,526)"/>
</svg>
